<?xml version="1.0" encoding="utf-8"?>
<!-- Generator: Adobe Illustrator 16.0.0, SVG Export Plug-In . SVG Version: 6.00 Build 0)  -->
<!DOCTYPE svg PUBLIC "-//W3C//DTD SVG 1.1//EN" "http://www.w3.org/Graphics/SVG/1.1/DTD/svg11.dtd">
<svg version="1.1" id="Layer_1" xmlns="http://www.w3.org/2000/svg" xmlns:xlink="http://www.w3.org/1999/xlink" x="0px" y="0px"
	 width="100px" height="20px" viewBox="0 0 100 20" enable-background="new 0 0 100 20" xml:space="preserve">
<g>
	<g>
		<g>
			<path d="M18.66,5.684c-0.668-3.293-2.925-5.646-7.016-5.683C11.612,0.001,11.58,0,11.547,0c-0.027,0-0.053,0.001-0.081,0.001
				C6.799,0.027,3.34,2.296,1.5,5.684C0.521,7.487,0,9.606,0,11.871c0,4.352,2.495,7.092,5.682,7.859
				c0.609,0.146,1.244,0.223,1.891,0.223c0.764,0,1.453-0.074,2.076-0.223c1.349-0.316,2.386-0.973,3.194-1.924v1.727
				c0,0.025,0.006,0.053,0.016,0.074c0.03,0.067,0.099,0.117,0.18,0.123h2.757c0.035-0.004,0.066-0.015,0.095-0.029
				c0.046-0.027,0.081-0.072,0.094-0.126l0,0l1.904-9.427l0,0c0.004-0.018,0.007-0.036,0.007-0.053c0-0.112-0.093-0.201-0.208-0.201
				h-6.949c-0.1,0.001-0.183,0.069-0.202,0.16h-0.001l-0.522,2.555c-0.002,0.013-0.005,0.023-0.005,0.039
				c0,0.025,0.006,0.054,0.017,0.076c0.031,0.07,0.104,0.123,0.188,0.123h3.494c-0.749,2.006-2.505,3.764-5.27,3.764
				c-2.792,0-4.549-1.951-4.549-5.271c0-2.17,0.715-4.19,1.961-5.658c1.218-1.434,2.944-2.34,5.007-2.34
				c1.941,0,3.067,0.856,3.824,2.34c0.185,0.361,0.348,0.761,0.496,1.195c0,0.003,0,0.005,0.001,0.008
				c0.032,0.072,0.106,0.122,0.192,0.122c0.019,0,0.039-0.002,0.057-0.008c0.001,0,0.001,0,0.001,0l3.134-0.794l0,0
				c0.021-0.006,0.041-0.013,0.059-0.024c0.06-0.035,0.1-0.098,0.1-0.171c0-0.011-0.001-0.021-0.003-0.031
				C18.698,5.879,18.679,5.782,18.66,5.684"/>
			<path d="M26.333,0.202c0-0.11-0.092-0.2-0.207-0.201l0,0C26.125,0.001,26.125,0,26.123,0h-3.167
				c-0.003,0.001-0.005,0.001-0.007,0.001h-0.001c-0.103,0.001-0.188,0.073-0.204,0.167h-0.001L21.64,5.684l-2.76,13.802
				c-0.003,0.016-0.005,0.029-0.005,0.043c0,0.027,0.006,0.055,0.017,0.078c0.032,0.072,0.105,0.123,0.192,0.123h3.176
				c0.039,0,0.077-0.014,0.108-0.029c0.045-0.027,0.079-0.068,0.092-0.12h0.001L25.24,5.684l1.089-5.45
				C26.331,0.224,26.333,0.213,26.333,0.202"/>
			<path d="M36.269,5.684c-0.582-0.145-1.211-0.221-1.887-0.221c-0.831,0-1.575,0.067-2.266,0.221
				c-1.345,0.297-2.486,0.922-3.666,2.008c-1.728,1.617-2.476,3.678-2.476,6.328c0,2.744,1.639,5.017,4.445,5.713
				c0.581,0.146,1.212,0.224,1.89,0.224c0.832,0,1.579-0.065,2.271-0.224c1.342-0.299,2.482-0.924,3.661-2.008
				c1.728-1.615,2.476-3.68,2.476-6.326C40.716,8.65,39.075,6.382,36.269,5.684 M35.821,15.495C35.073,16.441,34.036,17,32.625,17
				c-1.699,0-2.822-1.337-2.822-3.514c0-1.504,0.345-2.674,1.065-3.565c0.749-0.946,1.785-1.504,3.197-1.504
				c1.699,0,2.822,1.337,2.822,3.511C36.887,13.434,36.542,14.604,35.821,15.495"/>
			<path d="M52.652,7.704V7.7C52.165,6.784,51.07,6.037,49.8,5.684c-0.512-0.144-1.052-0.221-1.592-0.221
				c-0.674,0-1.29,0.076-1.846,0.221c-2.032,0.531-3.222,1.991-3.222,4.07c0,1.867,1.268,2.954,2.966,3.734
				c1.641,0.752,2.476,1.254,2.476,2.062c0,1.003-0.864,1.449-1.842,1.449c-1.373,0-2.351-0.812-2.765-2.188
				c-0.027-0.078-0.104-0.136-0.196-0.136c-0.028,0-0.055,0.005-0.08,0.017l-2.675,1.072v0.002c-0.074,0.03-0.126,0.104-0.126,0.188
				c0,0.011,0.002,0.021,0.004,0.027c0.351,1.394,1.485,3.144,3.709,3.75c0.515,0.145,1.088,0.225,1.726,0.225
				c0.726,0,1.409-0.073,2.034-0.225c2.199-0.522,3.667-2.006,3.667-4.651c0-1.951-1.496-2.897-2.994-3.565
				c-0.979-0.445-2.504-0.865-2.504-1.841c0-0.807,0.633-1.253,1.41-1.253c0.75,0,1.601,0.338,2.109,1.06
				c0.039,0.047,0.098,0.08,0.165,0.08c0.04,0,0.077-0.011,0.108-0.03c0.002,0,0.002,0,0.003,0l2.241-1.56V7.966
				c0.005-0.004,0.011-0.007,0.017-0.011l0.005-0.003c0.049-0.038,0.077-0.094,0.077-0.157C52.674,7.762,52.666,7.73,52.652,7.704"
				/>
			<path d="M61.66,5.684c-0.512-0.143-1.051-0.221-1.592-0.221c-0.672,0-1.291,0.076-1.844,0.221C56.189,6.215,55,7.675,55,9.755
				c0,1.866,1.268,2.953,2.966,3.733c1.642,0.753,2.478,1.254,2.478,2.062c0,1.005-0.861,1.447-1.842,1.447
				c-1.375,0-2.355-0.813-2.77-2.198c-0.031-0.072-0.104-0.125-0.191-0.125c-0.029,0-0.06,0.006-0.082,0.018l-2.672,1.072v0.002
				c-0.076,0.029-0.127,0.104-0.127,0.187c0,0.014,0.002,0.024,0.004,0.039c0.354,1.387,1.488,3.133,3.709,3.739
				c0.516,0.144,1.088,0.224,1.727,0.224c0.727,0,1.408-0.073,2.033-0.224c2.199-0.523,3.668-2.006,3.668-4.652
				c0-1.951-1.498-2.896-2.996-3.567c-0.979-0.444-2.506-0.864-2.506-1.839c0-0.807,0.637-1.253,1.412-1.253
				c0.748,0,1.599,0.337,2.104,1.055c0.038,0.052,0.101,0.085,0.17,0.085c0.04,0,0.076-0.011,0.106-0.03l0,0l2.271-1.579
				c0.044-0.037,0.073-0.092,0.073-0.153c0-0.032-0.008-0.064-0.021-0.091C64.029,6.785,62.932,6.037,61.66,5.684"/>
			<path d="M70.966,5.686h-3.181c-0.094,0-0.172,0.06-0.199,0.142l-2.743,13.656c0,0,0,0,0,0.002
				c-0.004,0.014-0.006,0.029-0.006,0.045c0,0.027,0.009,0.054,0.017,0.076c0.033,0.074,0.106,0.123,0.191,0.123h3.178
				c0.041,0,0.076-0.013,0.107-0.028c0.046-0.026,0.078-0.068,0.094-0.118l2.748-13.681c0-0.005,0-0.01,0-0.016
				C71.172,5.775,71.081,5.686,70.966,5.686"/>
			<path d="M82.171,5.684C81.613,5.539,81,5.463,80.331,5.463c-0.735,0-1.433,0.076-2.087,0.221
				c-4.049,0.889-6.523,4.338-6.523,8.055c0,3.217,1.776,5.331,4.379,5.991c0.577,0.146,1.193,0.223,1.842,0.223
				c0.785,0,1.498-0.074,2.151-0.223c2.023-0.455,3.497-1.621,4.863-3.528c0.021-0.031,0.03-0.066,0.03-0.104
				c0-0.07-0.039-0.134-0.098-0.168l-2.511-1.252c-0.022-0.012-0.053-0.02-0.082-0.02c-0.062,0-0.121,0.029-0.157,0.076
				C81.098,16.184,79.908,17,78.256,17c-1.898,0-2.936-1.282-2.936-2.732v-0.441h10.267l0.002-0.001c0.04,0,0.076-0.013,0.106-0.028
				c0.043-0.023,0.076-0.062,0.091-0.109h0.002c0.103-0.356,0.36-1.363,0.36-2.592C86.148,8.497,84.777,6.356,82.171,5.684
				 M76.012,11.092c0.604-1.45,2.045-2.675,3.858-2.675s2.649,0.919,2.765,2.675H76.012z"/>
			<path d="M97.77,8.822c0.002,0.001,0.006,0.002,0.008,0.004c0.029,0.016,0.064,0.024,0.104,0.024c0.041,0,0.077-0.01,0.105-0.03
				c0.037-0.021,0.065-0.055,0.082-0.094l1.053-2.708l0,0c0.011-0.025,0.018-0.052,0.018-0.08c0-0.083-0.054-0.155-0.125-0.186l0,0
				c-0.068-0.025-0.134-0.048-0.193-0.069c-0.446-0.152-0.836-0.221-1.492-0.221c-0.521,0-1.042,0.07-1.551,0.221
				c-1.062,0.314-2.086,0.98-3,2.091l0.381-1.842c0.004-0.016,0.006-0.03,0.006-0.046c0-0.111-0.092-0.201-0.207-0.201
				c-0.002,0-0.002,0-0.003,0h-3.166c-0.002,0-0.005,0-0.007,0c-0.104,0-0.186,0.07-0.203,0.163V5.85L86.83,19.496
				c-0.003,0.011-0.003,0.021-0.003,0.033c0,0.027,0.004,0.055,0.017,0.078c0.03,0.072,0.104,0.123,0.189,0.123h3.179
				c0.04,0,0.077-0.014,0.108-0.029c0.045-0.028,0.08-0.072,0.093-0.124l0.978-4.835c0.862-4.431,3.34-6.187,5.125-6.187
				C97.012,8.556,97.43,8.65,97.77,8.822"/>
			<path d="M70.02,0.219c-1.176,0-2.043,0.866-2.043,1.979c0,1.112,0.867,1.979,2.043,1.979c1.18,0,2.045-0.867,2.045-1.979
				C72.064,1.085,71.195,0.219,70.02,0.219"/>
			<path d="M97.955,16.041c-1.176,0-2.045,0.866-2.045,1.979c0,0.741,0.385,1.373,0.988,1.711C97.202,19.9,97.562,20,97.955,20
				s0.752-0.1,1.057-0.27C99.616,19.393,100,18.76,100,18.02C100,16.907,99.131,16.041,97.955,16.041"/>
		</g>
	</g>
</g>
</svg>
